<?xml version="1.0" encoding="UTF-8"?>
<!DOCTYPE svg PUBLIC "-//W3C//DTD SVG 1.1//EN" "http://www.w3.org/Graphics/SVG/1.1/DTD/svg11.dtd">
<!-- Creator: CorelDRAW X8 -->
<svg xmlns="http://www.w3.org/2000/svg" xml:space="preserve" width="652px" height="504px" version="1.1" style="shape-rendering:geometricPrecision; text-rendering:geometricPrecision; image-rendering:optimizeQuality; fill-rule:evenodd; clip-rule:evenodd"
viewBox="0 0 645 499"
 xmlns:xlink="http://www.w3.org/1999/xlink">
 <defs>
  <style type="text/css">
   <![CDATA[
    .fil14 {fill:black;fill-rule:nonzero}
    .fil10 {fill:#040C2B;fill-rule:nonzero}
    .fil18 {fill:#06123E;fill-rule:nonzero}
    .fil11 {fill:#071549;fill-rule:nonzero}
    .fil9 {fill:#081956;fill-rule:nonzero}
    .fil6 {fill:#0F31AC;fill-rule:nonzero}
    .fil5 {fill:#829CF8;fill-rule:nonzero}
    .fil13 {fill:#AB744D;fill-rule:nonzero}
    .fil19 {fill:#ACBCF8;fill-rule:nonzero}
    .fil16 {fill:#BA8051;fill-rule:nonzero}
    .fil12 {fill:#C9885B;fill-rule:nonzero}
    .fil3 {fill:#CBCED8;fill-rule:nonzero}
    .fil0 {fill:#CFD6EE;fill-rule:nonzero}
    .fil17 {fill:#D13C1A;fill-rule:nonzero}
    .fil2 {fill:#D9D9D9;fill-rule:nonzero}
    .fil8 {fill:#DB965F;fill-rule:nonzero}
    .fil7 {fill:#DEE4FC;fill-rule:nonzero}
    .fil1 {fill:#EEF2FE;fill-rule:nonzero}
    .fil15 {fill:#F6471E;fill-rule:nonzero}
    .fil4 {fill:white;fill-rule:nonzero}
   ]]>
  </style>
    <clipPath id="id0" style="clip-rule:nonzero">
     <path d="M321 107c0,0 0,0 0,0 1,0 1,0 1,0 1,0 1,0 2,0 0,0 0,0 0,0 1,-1 1,-1 1,-2 0,-1 -1,-1 -1,-2 0,0 0,0 0,0 -1,0 -1,0 -1,0 -1,0 -1,0 -2,0 0,0 0,0 0,0 -1,1 -1,1 -1,2 0,1 0,1 1,2z"/>
    </clipPath>
 </defs>
 <g id="Layer_x0020_1">
  <metadata id="CorelCorpID_0Corel-Layer"/>
  <g id="_1632178145200">
   <path class="fil0" d="M142 176c0,0 -1,0 -1,0 -2,0 -4,-2 -7,-3 0,-1 0,-2 0,-2 0,-1 1,-1 1,-1 1,0 1,0 1,0 2,2 4,3 6,3 1,1 1,1 1,2 0,1 -1,1 -1,1zm7 -1c-1,0 -1,0 -1,0 -1,-1 -1,-2 0,-2 0,-1 1,-1 1,-2 1,-1 2,-2 2,-4 0,0 1,-1 1,-1 1,0 1,0 1,0 1,1 1,2 1,2 -1,2 -1,3 -2,4 -1,1 -2,2 -2,3 -1,0 -1,0 -1,0zm-19 -7c-1,0 -1,0 -1,0 -2,-2 -4,-4 -5,-6 -1,0 -1,-1 0,-2 0,0 0,0 1,0 0,0 1,0 1,0 1,2 3,4 5,6 0,0 0,1 0,2 -1,0 -1,0 -1,0zm24 -6c0,0 0,0 0,0 -1,0 -1,-1 -1,-2 0,-2 0,-4 0,-7 1,0 1,-1 2,-1 0,0 0,0 0,0 1,0 1,1 1,1 0,3 0,6 0,8 0,1 -1,1 -2,1zm-33 -5c-1,0 -1,-1 -2,-1 -1,-2 -2,-5 -3,-7 0,-1 1,-2 2,-2 0,0 0,0 0,0 1,0 1,0 1,1 1,2 2,4 3,7 0,0 0,1 -1,2 0,0 0,0 0,0zm34 -9c-1,0 -2,-1 -2,-2 0,-2 0,-5 -1,-7 0,-1 1,-1 1,-2 0,0 1,0 1,0 0,0 1,1 1,2 1,2 1,4 1,7 0,1 0,1 -1,2 0,0 0,0 0,0zm-38 -5c0,0 0,0 0,0 -1,0 -1,-1 -1,-2 0,-2 0,-4 1,-6 0,-1 1,-1 1,-1 0,-1 1,-1 1,-1 0,0 1,0 1,0 1,0 1,1 1,2 -1,0 -1,1 -1,1 -1,2 -1,4 -1,5 0,1 -1,2 -2,2zm34 -10c0,0 -1,0 -1,0 -1,-3 -2,-5 -4,-6 0,-1 0,-1 0,-2 0,0 1,-1 1,-1 1,0 1,1 1,1 2,2 4,4 5,6 0,1 0,2 -1,2 0,0 0,0 -1,0zm-27 -3c0,0 -1,0 -1,0 -1,-1 -1,-2 0,-2 2,-2 4,-3 7,-4 0,-1 0,-1 0,-1 1,0 1,1 2,1 0,1 0,2 -1,2 -2,1 -4,2 -6,4 0,0 -1,0 -1,0zm20 -4c0,0 0,-1 0,-1 -2,0 -3,-1 -5,-1 -1,0 -1,0 -2,0 0,0 0,0 0,0 -1,0 -1,0 -1,-1 0,-1 0,-1 1,-1 1,-1 1,-1 2,-1 2,0 4,1 6,2 1,0 1,1 1,2 -1,0 -1,1 -2,1z"/>
   <path class="fil0" d="M84 216c0,0 0,0 0,0 -2,0 -5,-1 -7,-1 -1,0 -2,-1 -1,-1 0,-1 0,-2 1,-2 0,0 0,0 0,0 3,1 5,1 7,1 1,0 2,0 2,1 0,1 -1,2 -2,2zm8 -1c-1,0 -2,0 -2,-1 0,-1 1,-1 2,-1 2,-1 4,-1 7,-1 0,0 0,0 0,0 1,0 1,0 1,1 0,1 0,1 -1,2 -2,0 -5,0 -7,0 0,0 0,0 0,0zm-22 -1c0,0 0,0 -1,0 -2,-1 -4,-2 -7,-3 0,0 -1,-1 -1,-1 1,-1 1,-1 2,-1 0,0 0,0 0,0 3,1 5,1 7,2 1,0 1,1 1,2 0,0 -1,1 -1,1zm36 -1c-1,0 -1,0 -1,-1 -1,-1 0,-2 1,-2 2,0 4,-1 7,-2 0,0 0,0 0,0 1,0 1,0 1,1 1,1 0,2 0,2 -3,1 -5,1 -8,2 0,0 0,0 0,0zm-50 -5c0,0 0,0 0,0 -3,-2 -5,-3 -6,-5 -1,-1 -1,-2 0,-2 0,-1 1,-1 1,-1 0,0 1,1 1,1 2,2 3,3 5,4 1,1 1,2 1,2 -1,1 -1,1 -2,1zm64 0c-1,0 -1,0 -2,-1 0,0 0,-1 1,-2 2,-1 4,-2 6,-4 0,0 0,0 1,0 0,0 1,0 1,1 0,0 0,1 0,2 -2,1 -4,3 -7,4 0,0 0,0 0,0zm10 -10c0,0 0,0 0,0 -1,0 -2,-1 -1,-2 0,-1 0,-2 0,-3 0,-1 0,-2 -1,-3 0,-1 1,-2 1,-2 1,0 1,0 1,0 0,0 1,0 1,1 1,1 1,3 1,4 0,2 0,3 -1,4 0,1 0,1 -1,1zm-83 -1c-1,0 -1,0 -1,-1 -2,-2 -2,-4 -3,-7 0,-1 0,-1 1,-2 0,0 0,0 0,0 1,0 2,1 2,2 0,2 1,4 2,6 1,1 0,2 0,2 -1,0 -1,0 -1,0zm79 -13c0,0 0,0 -1,0 -1,-2 -3,-4 -4,-6 -1,0 -1,-1 0,-2 0,0 0,0 1,0 0,0 1,0 1,0 2,2 3,4 5,6 0,1 0,2 -1,2 0,0 0,0 -1,0zm-83 -1c0,0 -1,-1 -1,-1 0,-1 0,-1 0,-2 0,-2 0,-4 0,-6 1,-1 1,-1 2,-1 0,0 0,0 0,0 1,0 1,1 1,2 0,1 0,3 0,5 0,1 0,1 0,2 0,0 -1,1 -2,1 0,0 0,0 0,0zm73 -9c0,0 0,0 0,-1 -2,-1 -4,-3 -6,-4 -1,-1 -1,-1 0,-2 0,-1 0,-1 1,-1 0,0 0,0 1,1 2,1 4,2 5,4 1,1 1,2 1,2 -1,1 -1,1 -2,1zm-70 -5c0,0 0,0 -1,0 0,-1 -1,-2 0,-2 1,-3 2,-5 4,-7 0,0 0,0 1,0 0,0 0,0 1,0 0,0 0,1 0,2 -2,2 -3,4 -4,6 0,0 0,1 -1,1zm59 -4c-1,0 -1,0 -1,0 0,0 -1,0 -1,0 0,-1 -1,-1 -2,-2 -1,0 -3,-1 -4,-2 -1,0 -1,-1 -1,-2 0,0 1,-1 1,-1 1,0 1,0 1,1 2,0 3,1 4,2 1,0 2,1 3,1 0,0 0,0 0,0l0 0c1,1 1,2 1,2 0,1 -1,1 -1,1zm-14 -7c-1,0 -1,0 -1,0 -2,-1 -4,-1 -7,-2 0,0 -1,-1 -1,-2 0,0 1,-1 2,-1 0,0 0,0 0,0 3,1 5,2 7,3 1,0 1,1 1,1 0,1 -1,1 -1,1zm-36 0c0,0 -1,-1 -1,-1 0,-1 0,-2 0,-2 3,-1 5,-2 8,-3 0,0 0,0 0,0 1,0 1,0 1,1 1,1 0,2 -1,2 -2,0 -4,1 -6,3 0,0 0,0 -1,0zm22 -3c-1,0 -1,0 -1,0 -2,-1 -4,-1 -6,-1 0,0 -1,0 -1,0 0,0 0,0 0,0 -1,0 -1,-1 -1,-1 0,-1 0,-2 1,-2 0,0 1,0 1,0 2,0 4,0 7,1 1,0 1,0 1,1 0,1 -1,2 -1,2z"/>
   <path class="fil0" d="M103 457c-1,0 -1,-1 -1,-2 0,-1 0,-1 1,-1 2,0 5,0 7,0 0,0 0,0 0,0 1,0 2,0 2,1 0,1 -1,1 -2,1 -2,1 -5,1 -7,1 0,0 0,0 0,0zm-7 -1c0,0 0,0 0,0 -3,0 -5,0 -8,0 -1,0 -1,-1 -1,-1 0,-1 1,-2 1,-2 0,0 0,0 0,0 3,0 5,0 8,1 1,0 1,0 1,1 0,1 -1,1 -1,1zm-15 0c0,0 0,0 0,0 -3,-1 -5,-1 -7,-1l0 0c-1,0 -2,-1 -2,-2 0,-1 1,-1 2,-1 0,0 0,0 0,0 2,0 5,0 7,1 1,0 2,0 2,1 -1,1 -1,2 -2,2zm-14 -2c0,0 -1,0 -1,0 -2,-1 -5,-1 -7,-2 -1,0 -1,-1 -1,-2 0,0 1,-1 1,-1 1,0 1,0 1,0 2,1 4,1 7,2 1,0 1,1 1,1 0,1 -1,2 -1,2zm-15 -4c0,0 0,0 0,0 -3,0 -5,-1 -7,-2 -1,0 -1,-1 -1,-2 0,-1 1,-1 1,-1 1,0 1,0 1,0 2,1 4,2 7,2 1,1 1,2 1,2 0,1 -1,1 -2,1zm-13 -5c-1,0 -1,0 -1,0 -2,-1 -5,-2 -7,-3 0,-1 -1,-1 0,-2 0,-1 1,-1 1,-1 0,0 1,0 1,0 2,1 4,2 6,3 1,1 1,2 1,2 0,1 -1,1 -1,1zm-13 -7c0,0 -1,0 -1,0 -2,-2 -4,-3 -6,-5 0,0 0,-1 0,-2 0,0 1,0 1,0 1,0 1,0 1,0 2,2 4,3 6,4 0,1 1,2 0,2 0,1 -1,1 -1,1zm-11 -10c0,0 -1,0 -1,0 -2,-2 -3,-4 -5,-6 0,-1 0,-1 1,-2 0,0 0,0 0,0 1,0 1,0 2,0 1,2 2,4 4,6 1,1 1,2 0,2 0,0 -1,0 -1,0zm-8 -12c-1,0 -1,0 -2,0 -1,-3 -2,-5 -2,-7 -1,-1 0,-2 0,-2 1,0 1,0 1,0 1,0 1,0 1,1 1,2 2,4 3,6 0,1 0,2 -1,2 0,0 0,0 0,0zm-5 -13c-1,0 -1,-1 -1,-2 -1,-3 -1,-5 -1,-6 0,0 0,-1 0,-1l0 0 0 0c0,0 0,0 0,0 0,-1 1,-2 2,-2 0,0 0,0 0,0 0,0 1,1 1,2 0,0 0,0 0,1 0,0 0,0 0,0 0,0 0,0 0,0 0,1 0,3 1,6 0,1 -1,1 -2,2 0,0 0,0 0,0zm1 -8l0 0zm535 -1c0,-1 1,-1 1,-2 1,0 0,1 0,2 -1,0 -1,0 -1,0zm6 -4c0,0 -1,0 -1,-1 0,0 0,-1 1,-2 2,-1 4,-2 6,-3 0,0 0,0 1,0 0,0 1,0 1,0 0,1 0,2 -1,2 -2,2 -4,3 -6,4 0,0 0,0 -1,0zm-541 -2c0,0 0,0 -1,0 0,0 -1,-1 -1,-2 1,-2 2,-5 3,-7 0,0 0,-1 1,-1 0,0 0,0 0,0 1,1 2,1 1,2 -1,2 -1,5 -2,7 0,1 -1,1 -1,1zm554 -5c-1,0 -1,0 -1,-1 -1,-1 0,-1 0,-2 2,-1 4,-2 7,-3 0,-1 0,-1 0,-1 1,0 1,1 2,1 0,1 0,2 -1,2 -2,1 -4,2 -6,4 -1,0 -1,0 -1,0zm13 -7c-1,0 -1,-1 -2,-1 0,-1 0,-2 1,-2 2,-1 4,-2 7,-3 0,-1 0,-1 0,-1 1,0 1,1 2,1 0,1 0,2 -1,2 -2,1 -4,2 -7,4l0 0c0,0 0,0 0,0zm-562 -2c0,0 -1,0 -1,0 -1,0 -1,-1 0,-2 1,-2 2,-4 3,-6l0 0c0,-1 1,-1 1,-1 1,0 1,0 1,0 1,1 1,2 1,2 -2,2 -3,4 -4,7 0,0 -1,0 -1,0zm575 -5c-1,0 -1,0 -2,-1 0,-1 0,-1 1,-2 2,-1 4,-2 6,-3 1,-1 1,-1 1,-1 1,0 1,1 1,1 1,1 1,2 0,2 -2,1 -4,3 -7,4l0 0c0,0 0,0 0,0zm-568 -7c0,0 0,0 0,0 -1,-1 -1,-2 -1,-2 2,-2 3,-4 5,-6 0,-1 0,-1 1,-1 0,0 1,0 1,0 0,1 1,2 0,3 -1,1 -3,3 -4,5 -1,1 -1,1 -2,1zm580 -1c0,0 -1,0 -1,0 0,-1 0,-2 0,-2 2,-2 4,-3 6,-5 1,0 1,0 1,0 1,0 1,0 1,1 1,0 1,1 0,2 -2,1 -4,3 -6,4l0 0c0,0 -1,0 -1,0zm12 -9c-1,0 -1,0 -1,0 -1,-1 -1,-2 0,-2 2,-2 4,-3 5,-5 1,0 1,0 1,0 1,0 1,0 1,0 1,1 1,2 0,2 -2,2 -3,3 -5,5l0 0c0,0 -1,0 -1,0zm-582 -2c-1,0 -1,0 -1,0 -1,0 -1,-1 0,-2 1,-2 3,-4 5,-5 0,-1 0,-1 1,-1 0,0 0,0 1,1 0,0 0,1 0,2 -2,1 -4,3 -5,5 -1,0 -1,0 -1,0zm592 -8c0,0 0,0 -1,0 0,-1 0,-2 0,-2 2,-2 4,-4 5,-6 0,0 1,0 1,0 0,0 1,0 1,0 1,1 1,2 0,2 -1,2 -3,4 -5,6 0,0 0,0 -1,0zm-582 -2c-1,0 -1,0 -1,0 -1,-1 -1,-2 0,-3 2,-1 3,-3 5,-5 1,0 1,0 1,0 1,0 1,0 1,1 1,0 1,1 0,2 -2,1 -3,3 -5,5 0,0 -1,0 -1,0zm592 -9c-1,0 -1,0 -1,0 -1,-1 -1,-2 -1,-2 2,-2 3,-4 4,-6 1,-1 1,-1 2,-1 0,0 0,0 0,0 1,1 1,1 1,2 -1,2 -3,4 -4,6l0 0c0,1 -1,1 -1,1zm7 -13c0,0 0,0 0,0 -1,0 -1,-1 -1,-2 1,-2 2,-4 3,-6 0,-1 1,-1 1,-1 1,0 1,0 1,0 1,0 1,1 1,2 -1,2 -2,4 -3,7 -1,0 -1,0 -2,0zm6 -13c0,0 0,0 0,0 -1,0 -2,-1 -1,-2 0,-2 1,-5 2,-7 0,0 0,-1 1,-1 0,0 0,0 0,0 1,0 2,1 1,2 0,2 -1,5 -2,7 0,1 0,1 -1,1zm3 -14c0,0 0,0 0,0 -1,0 -1,-1 -1,-2 0,-2 0,-3 0,-5 0,-1 0,-1 0,-2 0,-1 1,-1 1,-1 0,0 0,0 0,0 1,0 2,0 2,1 0,1 0,1 0,2 0,2 0,4 0,5 0,1 -1,2 -2,2zm0 -15c-1,0 -2,0 -2,-1 0,-2 -1,-5 -2,-7 0,0 0,-1 1,-2 0,0 0,0 0,0 1,0 2,1 2,1 1,2 1,5 2,7 0,1 0,2 -1,2 0,0 0,0 0,0zm-6 -13c-1,0 -1,0 -1,-1 -2,-2 -3,-4 -5,-5 0,-1 0,-2 0,-2 0,0 1,-1 1,-1 0,0 1,0 1,1 2,1 4,3 5,5l0 0c1,1 0,2 0,3 0,0 -1,0 -1,0zm-11 -10c0,0 0,0 0,0 -2,-2 -5,-3 -7,-4 0,0 -1,-1 0,-2 0,0 0,0 1,0 0,0 0,0 0,0 3,1 5,2 7,3l0 0c1,1 1,2 1,2 -1,1 -1,1 -2,1zm-13 -6c0,0 0,0 0,0 -3,-1 -5,-2 -7,-3 -1,0 -1,-1 -1,-2 0,0 1,-1 1,-1 0,0 1,0 1,0 2,1 4,2 7,3 0,0 1,1 0,2 0,0 0,1 -1,1zm-97 -97c-1,0 -2,0 -2,-1 -1,-2 -2,-4 -3,-6 -1,-1 0,-2 0,-2 1,0 1,0 1,0 1,0 1,0 1,1 2,2 3,4 4,6 0,1 0,2 -1,2 0,0 0,0 0,0zm-8 -13c0,0 -1,0 -1,0 -1,-2 -3,-4 -4,-6 0,-1 0,-2 0,-2 1,0 1,-1 1,-1 1,0 1,1 1,1 2,2 3,4 5,6 0,1 0,2 -1,2 0,0 0,0 -1,0zm-8 -11c-1,0 -1,-1 -1,-1 -2,-2 -3,-4 -5,-6 -1,0 -1,-1 0,-2 0,0 1,0 1,0 0,0 1,0 1,1 2,1 3,3 5,5 0,1 0,2 0,2 -1,0 -1,1 -1,1zm-10 -11c0,0 -1,-1 -1,-1 -2,-2 -3,-3 -5,-5 -1,0 -1,-1 0,-2 0,0 0,0 1,0 0,0 1,0 1,0 2,2 3,3 5,5 1,1 1,2 0,2 0,0 -1,1 -1,1zm-11 -10c0,0 0,-1 -1,-1 -1,-1 -3,-3 -5,-5 -1,0 -1,-1 0,-2 0,0 0,0 1,0 0,0 0,0 1,0 2,2 4,3 5,5 1,0 1,1 1,2 -1,0 -1,1 -2,1zm-11 -10c0,0 -1,0 -1,0 -2,-1 -4,-3 -6,-4 0,-1 -1,-2 0,-2 0,-1 1,-1 1,-1 0,0 1,0 1,0 2,2 4,3 6,5 1,0 1,1 0,2 0,0 -1,0 -1,0zm-12 -8c0,0 0,0 -1,0 -2,-2 -4,-3 -6,-4 0,-1 -1,-2 0,-2 0,-1 0,-1 1,-1 0,0 0,0 1,0 2,1 4,3 6,4 1,1 1,1 0,2 0,1 0,1 -1,1zm-12 -8c-1,0 -1,0 -1,0 -2,-1 -4,-3 -6,-4 -1,0 -1,-1 -1,-2 0,0 1,0 1,0 1,0 1,0 1,0 2,1 4,2 6,3 1,1 1,2 1,2 0,1 -1,1 -1,1zm-13 -7c0,0 -1,0 -1,0 -1,-1 -3,-2 -5,-2 0,-1 -1,-2 -2,-3 0,-1 1,-1 1,-1 0,0 1,0 1,0 2,1 4,2 6,3 1,1 1,2 1,2 0,1 -1,1 -1,1z"/>
   <path class="fil1" d="M142 491c-49,-61 -155,-172 -60,-218 0,0 6,-2 17,-6 32,-14 98,-52 91,-123 0,0 -3,-14 -3,-32 0,-42 13,-112 99,-112 2,0 4,0 6,0 52,2 100,27 131,67 1,1 2,2 2,3 2,2 3,3 5,5 24,36 59,77 92,77 9,0 18,-3 26,-9 6,-5 14,-8 22,-8 4,0 7,0 10,1 28,8 61,50 -25,232 0,0 -7,9 -16,24 0,1 -1,1 -1,2 -3,5 -7,11 -10,17 -13,23 -27,54 -28,79 0,0 0,0 -1,0 -7,-1 -21,-2 -42,-3 -14,0 -31,-1 -51,-1 2,-1 4,-2 5,-4 5,-4 8,-11 8,-18l0 -30 2 35 8 0 -3 6 12 1 0 0c0,-3 2,-10 3,-14l3 1 21 -53 0 0c0,-1 0,-1 0,-2l-3 -12 -7 -34c0,-1 0,-1 0,-1l-3 -17 0 0 1 1c0,1 1,2 2,2 1,0 1,0 1,0l31 -10 2 0 6 -12c-1,-1 -1,-1 -2,-1 -3,0 -7,3 -7,3l2 -2c0,-1 0,-2 -1,-2 -4,3 -5,7 -5,7l-22 7 0 -2 0 0 1 -1c-4,-18 -7,-22 -8,-23 -1,0 -1,0 -1,0 0,0 0,0 0,0l-9 -4 0 0 0 0 0 0 -4 -2c0,0 0,-1 0,-1 0,0 0,0 0,-1l2 -11 -14 -6 1 10c0,0 0,0 0,0l0 0c0,3 -2,5 -3,7l-3 2 0 0 -1 0 0 0 -2 2 0 -187c0,-7 -3,-13 -8,-18 -3,-4 -8,-6 -13,-6 -1,0 -2,0 -3,0l-145 0c-1,0 -2,0 -3,0 -5,0 -10,2 -13,6 -5,5 -8,11 -8,18l0 344c0,7 3,14 8,18 1,2 3,3 5,4 -25,0 -46,1 -62,2 -7,0 -12,1 -17,1 -9,1 -14,1 -17,2 0,0 0,0 -1,0zm294 -44l2 -25c0,-8 0,-17 -1,-25l-1 -17 11 31 -11 36z"/>
   <path class="fil2" d="M323 499c-56,0 -106,-1 -140,-3 -7,0 -14,0 -20,-1 -3,0 -7,0 -9,-1 -8,0 -12,-1 -12,-2 0,0 1,-1 1,-1 26,-1 54,-3 98,-4 2,1 4,1 6,1 1,1 2,1 3,1l145 0c1,0 2,0 3,-1 2,0 4,0 5,-1 37,1 70,3 96,3 4,1 5,1 5,2 0,4 -81,7 -181,7z"/>
   <path class="fil3" d="M143 491c3,-1 8,-1 17,-2 5,0 10,-1 17,-1 16,-1 37,-2 62,-2 0,0 1,1 2,1 -44,1 -72,3 -98,4zm356 -1c-26,0 -59,-2 -96,-3 1,0 2,0 3,-1 20,0 37,1 51,1 21,1 35,2 42,3z"/>
   <path class="fil4" d="M397 96l-62 0c-3,0 -5,2 -5,5l0 0c0,5 -3,9 -8,9 -4,0 -8,-4 -8,-9l0 0c0,-3 -1,-5 -4,-5l-62 0c-11,0 -20,10 -20,22l0 349c0,12 9,21 20,21l149 0c11,0 20,-9 20,-21l0 -349c0,-12 -9,-22 -20,-22z"/>
   <path class="fil5" d="M230 472c0,0 0,1 0,1 0,0 0,-1 0,-1zm-1 -4c0,0 -1,-1 -1,-1 0,0 1,1 1,1 0,1 0,2 0,3 0,-1 0,-2 0,-3zm186 -5c0,12 -9,21 -19,21l-147 0c-11,0 -19,-9 -19,-21l0 -342c0,-11 8,-21 19,-21l61 0c3,0 5,2 5,5l0 0c0,5 3,9 7,9 5,0 8,-4 8,-9l0 0c0,-3 2,-5 5,-5l61 0c10,0 19,10 19,21l0 342zm-20 -367l-145 0c-13,0 -24,11 -24,24l0 344c0,14 11,25 24,25l145 0c13,0 24,-11 24,-25l0 -344c0,-13 -11,-24 -24,-24z"/>
   <path class="fil6" d="M325 105c0,1 -1,3 -3,3 -1,0 -2,-2 -2,-3 0,-1 1,-3 2,-3 2,0 3,2 3,3z"/>
   <g style="clip-path:url(#id0)">
    <image x="320" y="103" width="4.70277" height="4.65279" xlink:href="open-source-live-chat_Images\open-source-live-chat_ImgID1.png"/>
   </g>
   <polygon class="fil1" points="235,465 410,465 410,134 235,134 "/>
   <polygon class="fil7" points="235,167 410,167 410,134 235,134 "/>
   <path class="fil4" d="M249 145l-9 6 9 6c1,1 2,0 2,0 1,-1 1,-2 0,-2l-6 -4 6 -4c1,-1 1,-1 0,-2 0,-1 -1,-1 -2,0z"/>
   <path class="fil4" d="M402 151c0,3 -3,6 -6,6 -4,0 -6,-3 -6,-6 0,-4 2,-7 6,-7 3,0 6,3 6,7z"/>
   <path class="fil4" d="M402 151l0 0c0,2 -1,3 -2,4 -1,1 -2,2 -4,2 -2,0 -3,-1 -4,-2 -2,-1 -2,-2 -2,-4 0,-2 0,-3 2,-5 1,-1 2,-1 4,-1 2,0 3,0 4,1 1,2 2,3 2,5l0 0c0,-4 -3,-7 -6,-7 -4,0 -6,3 -6,7 0,3 2,6 6,6 3,0 6,-3 6,-6l0 0z"/>
   <path class="fil5" d="M392 153c0,-2 2,-5 4,-5 2,0 4,3 4,5 -1,2 -3,2 -4,2 -1,0 -3,0 -4,-2z"/>
   <path class="fil5" d="M398 148c0,2 -1,2 -2,2 -1,0 -2,0 -2,-2 0,-1 1,-2 2,-2 1,0 2,1 2,2z"/>
   <path class="fil4" d="M398 148l-1 0c0,1 0,1 0,2 0,0 -1,0 -1,0 0,0 -1,0 -1,0 0,-1 0,-1 0,-2 0,0 0,0 0,-1 0,0 1,0 1,0 0,0 1,0 1,0 0,1 0,1 0,1l1 0c0,0 0,-1 -1,-1 0,-1 0,-1 -1,-1 -1,0 -1,0 -2,1 0,0 0,1 0,1 0,1 0,2 0,2 1,0 1,1 2,1 1,0 1,-1 1,-1 1,0 1,-1 1,-2l0 0z"/>
   <path class="fil4" d="M386 151c0,3 -3,6 -6,6 -4,0 -7,-3 -7,-6 0,-4 3,-7 7,-7 3,0 6,3 6,7z"/>
   <path class="fil4" d="M386 151l0 0c0,2 -1,3 -2,4 -1,1 -3,2 -4,2 -2,0 -4,-1 -5,-2 -1,-1 -2,-2 -2,-4 0,-2 1,-3 2,-5 1,-1 3,-1 5,-1 1,0 3,0 4,1 1,2 2,3 2,5l0 0c0,-4 -3,-7 -6,-7 -4,0 -7,3 -7,7 0,3 3,6 7,6 3,0 6,-3 6,-6l0 0z"/>
   <path class="fil5" d="M381 152l0 0c-1,0 -1,0 -1,0l-2 -1c0,0 0,-1 0,-1l0 0c0,-1 0,-1 0,-2l-2 -1c-1,2 -1,5 1,6l1 1c2,1 4,1 6,-1l-2 -2c0,0 -1,0 -1,1z"/>
   <polygon class="fil5" points="235,123 238,123 238,119 235,119 "/>
   <polygon class="fil5" points="240,123 242,123 242,117 240,117 "/>
   <polygon class="fil5" points="244,123 247,123 247,115 244,115 "/>
   <path class="fil5" d="M390 123l17 0 0 -8 -17 0 0 8zm18 0l-18 0 0 -8 18 0 0 8z"/>
   <polygon class="fil5" points="391,122 393,122 393,116 391,116 "/>
   <polygon class="fil5" points="394,122 397,122 397,116 394,116 "/>
   <polygon class="fil5" points="397,122 400,122 400,116 397,116 "/>
   <polygon class="fil5" points="408,121 409,121 409,117 408,117 "/>
   <path class="fil8" d="M415 383c-2,0 -4,-4 -7,-8l-13 -30c0,-1 0,-3 1,-5l7 -17 9 7 -9 14 7 22c5,3 4,9 5,17z"/>
   <path class="fil9" d="M448 414l0 0 -18 -50 -1 -2 24 -9 9 43 3 12c0,2 -1,3 -2,3l-15 3z"/>
   <path class="fil8" d="M442 459c0,0 -4,13 -4,17l-12 -1 9 -21 7 5z"/>
   <path class="fil10" d="M436 484c0,0 9,5 17,4 1,0 2,-1 2,-2 0,-1 -1,-3 -5,-5 0,0 -9,-7 -11,-11 0,0 -7,2 -10,-2 0,0 -3,2 -5,6 -1,3 1,6 4,7 3,1 6,2 8,3z"/>
   <polygon class="fil9" points="448,406 432,458 435,459 444,463 465,410 "/>
   <path class="fil11" d="M447 411l-11 -31 -2 -13c1,0 2,0 3,0l0 0 0 0c0,0 1,0 2,0l2 6 9 34 -2 -1 -1 5z"/>
   <polygon class="fil11" points="435,458 436,447 447,411 448,406 450,407 451,411 "/>
   <path class="fil8" d="M432 464c0,0 0,14 2,17l-12 3 1 -23 9 3z"/>
   <path class="fil10" d="M435 491c0,0 10,1 17,-2 1,0 2,-1 1,-2 0,-2 -2,-3 -6,-4 0,0 -11,-3 -14,-7 0,0 -7,3 -11,1 0,0 -2,3 -2,8 0,3 3,5 6,5 3,0 7,0 9,1z"/>
   <path class="fil9" d="M438 422l-4 47 -13 0 -3 -54 -5 -27c0,-2 -2,-6 -3,-8 -1,-8 1,-12 1,-15 0,-5 1,-8 1,-8l21 -5 4 45c1,8 1,17 1,25z"/>
   <path class="fil8" d="M453 345l-1 -1 -5 -16 4 -1 2 0 5 -1 2 9 0 2 22 -7c0,0 1,-4 5,-7 1,0 1,1 1,2l-2 2c0,0 5,-4 9,-2l-6 12 -2 0 -31 10c-1,0 -3,0 -3,-2z"/>
   <path class="fil12" d="M422 305l0 9 15 3 8 -4 -4 -5 -2 -3c0,0 0,-1 0,-2l2 -11 -14 -6 1 9 0 1c0,5 -6,9 -6,9z"/>
   <path class="fil3" d="M428 296c0,0 0,0 0,0l-1 -10 1 9 0 1z"/>
   <path class="fil13" d="M440 307c-3,-1 -8,-4 -12,-11l0 -1 -1 -9 14 6 -2 11c0,1 0,1 0,1 0,0 0,1 0,1l0 0c0,1 1,2 1,2z"/>
   <path class="fil8" d="M447 284c0,0 -1,20 -7,19 0,0 -7,-1 -14,-12l-1 -4 4 -6 18 3z"/>
   <path class="fil14" d="M438 274c0,0 17,2 9,15 0,0 -2,0 -4,-5 0,0 -1,6 -11,3 0,0 0,3 0,4l-1 0c0,0 0,-3 -3,-4 0,0 -3,-1 -1,4l1 2 0 4c0,0 -4,-8 -4,-12 0,0 -2,-7 4,-11 0,0 5,-4 10,0z"/>
   <path class="fil15" d="M450 338l3 -1 6 -2 2 -1c-4,-18 -7,-22 -8,-23 -1,0 -1,0 -1,0l-1 16 -1 11z"/>
   <path class="fil16" d="M452 343l0 -2c0,0 0,0 0,0l0 -4 1 0 0 0 -1 6z"/>
   <polygon class="fil17" points="452,337 453,316 453,327 453,337 "/>
   <path class="fil15" d="M453 364c-2,0 -5,1 -8,2 -2,0 -5,1 -8,1l0 0c-8,1 -18,1 -25,-2 0,0 -1,0 -1,-1 0,0 -1,-1 -1,-2l0 -1 0 -30c0,0 0,0 0,0l0 -3 1 -16 10 -7 1 0 3 -2c0,0 -3,4 7,9 1,0 2,0 3,0 0,0 0,0 0,0 1,0 2,0 3,-1 1,-1 2,-2 1,-6l4 2 0 0 9 4c0,0 1,1 1,1l-1 29c0,0 0,0 0,0l3 20c0,1 -1,3 -2,3z"/>
   <path class="fil17" d="M411 364l0 0c0,0 -1,-1 -1,-2l0 -1 0 -28 0 -2c0,0 0,0 0,0 0,0 0,0 0,0l0 -3 5 -4 -4 40z"/>
   <path class="fil15" d="M413 312c0,0 -6,-2 -15,20l9 7c0,0 16,-22 6,-27z"/>
   <path class="fil18" d="M437 367l0 0c0,0 0,0 0,0l0 0 0 0z"/>
   <path class="fil17" d="M437 367l-1 0 -1 -55 0 0c0,0 0,0 0,0 0,0 0,0 0,0l0 0 2 55 0 0c0,0 0,0 0,0z"/>
   <polygon class="fil3" points="443,307 443,307 443,307 443,307 "/>
   <path class="fil17" d="M438 316l-1 -3c0,1 0,1 0,1 -1,0 -2,-2 -2,-2 1,1 1,1 2,1 0,0 1,0 1,0l0 3c4,-4 5,-7 5,-9l0 0 0 0 0 0c0,7 -5,9 -5,9z"/>
   <path class="fil17" d="M434 314c0,-1 0,-1 1,-2 0,0 -1,1 -1,2z"/>
   <polygon class="fil3" points="421,305 422,305 422,305 "/>
   <path class="fil17" d="M432 316c-7,-4 -10,-8 -11,-11l0 0 1 0 0 0c1,6 10,11 10,11l0 -3c1,0 1,1 1,1 0,0 0,0 1,0 -1,0 -1,0 -1,0l-1 2z"/>
   <path class="fil14" d="M482 339l6 -1 10 -23c0,0 0,0 0,0l-1 -1c0,0 0,0 0,0l-1 1 -14 24c0,0 0,0 0,0l0 0c0,0 0,0 0,0z"/>
   <polygon class="fil4" points="497,314 492,316 482,339 487,338 "/>
   <path class="fil8" d="M489 337l-2 -2c-2,-4 0,-8 2,-10 1,-1 2,-1 4,-1l0 -1c2,0 3,1 3,3 0,3 -1,6 -7,11z"/>
   <path class="fil19" d="M487 176l-128 0c-12,0 -22,10 -22,22l0 44c0,12 10,22 22,22l128 0c12,0 22,-10 22,-22l0 -44c0,-12 -10,-22 -22,-22z"/>
   <path class="fil19" d="M350 234c0,0 -19,-9 -30,0 0,0 18,-32 33,-30l-3 30z"/>
   <path class="fil4" d="M452 220c0,-3 3,-6 6,-6 3,0 5,3 5,6 0,3 -2,5 -5,5 -3,0 -6,-2 -6,-5z"/>
   <path class="fil4" d="M429 220c0,-3 2,-6 5,-6 3,0 6,3 6,6 0,3 -3,5 -6,5 -3,0 -5,-2 -5,-5z"/>
   <path class="fil4" d="M406 220c0,-3 2,-6 5,-6 3,0 6,3 6,6 0,3 -3,5 -6,5 -3,0 -5,-2 -5,-5z"/>
   <path class="fil4" d="M382 220c0,-3 3,-6 6,-6 3,0 5,3 5,6 0,3 -2,5 -5,5 -3,0 -6,-2 -6,-5z"/>
   <path class="fil19" d="M158 321l128 0c12,0 22,10 22,22l0 43c0,12 -10,22 -22,22l-128 0c-12,0 -22,-10 -22,-22l0 -43c0,-12 10,-22 22,-22z"/>
   <path class="fil19" d="M295 379c0,0 19,-9 30,0 0,0 -18,-32 -33,-30l3 30z"/>
   <path class="fil4" d="M193 365c0,-3 -3,-6 -6,-6 -3,0 -5,3 -5,6 0,3 2,5 5,5 3,0 6,-2 6,-5z"/>
   <path class="fil4" d="M216 365c0,-3 -2,-6 -5,-6 -4,0 -6,3 -6,6 0,3 2,5 6,5 3,0 5,-2 5,-5z"/>
   <path class="fil4" d="M239 365c0,-3 -2,-6 -5,-6 -3,0 -6,3 -6,6 0,3 3,5 6,5 3,0 5,-2 5,-5z"/>
   <path class="fil4" d="M263 365c0,-3 -3,-6 -6,-6 -3,0 -5,3 -5,6 0,3 2,5 5,5 3,0 6,-2 6,-5z"/>
  </g>
 </g>
</svg>
