<?xml version="1.0" standalone="no"?>
<!DOCTYPE svg PUBLIC "-//W3C//DTD SVG 20010904//EN"
 "http://www.w3.org/TR/2001/REC-SVG-20010904/DTD/svg10.dtd">
<svg version="1.0" xmlns="http://www.w3.org/2000/svg"
 width="1024.000000pt" height="1024.000000pt" viewBox="0 0 1024.000000 1024.000000"
 preserveAspectRatio="xMidYMid meet">

<g transform="translate(0.000000,1024.000000) scale(0.100000,-0.100000)"
fill="#000000" stroke="none">
<path d="M4755 9053 c-309 -20 -617 -106 -820 -228 -328 -198 -579 -528 -776
-1022 -28 -70 -91 -245 -139 -390 l-88 -263 -78 -73 c-247 -230 -646 -771
-738 -1000 -41 -103 -59 -239 -52 -397 24 -545 231 -1034 577 -1365 237 -226
546 -390 821 -435 53 -8 60 -13 162 -115 l106 -106 0 -135 c0 -111 -2 -134
-15 -134 -24 0 -272 -84 -406 -138 -228 -91 -502 -230 -672 -340 -242 -156
-787 -607 -815 -674 -37 -86 69 -165 148 -111 14 9 50 39 80 68 87 81 354 301
477 392 179 133 364 247 573 351 179 90 378 177 386 170 1 -2 -10 -30 -27 -63
-38 -78 -62 -194 -54 -260 47 -351 464 -705 1005 -853 202 -56 298 -66 595
-67 248 0 294 3 405 23 263 48 416 95 605 187 262 127 451 299 568 515 84 155
99 313 43 449 -14 35 -24 66 -22 68 11 12 605 -220 876 -342 226 -101 294
-134 562 -268 305 -153 313 -155 363 -95 26 31 32 75 15 108 -31 58 -819 436
-1275 611 -71 28 -158 61 -192 75 -80 31 -468 160 -510 169 l-33 7 0 135 c0
135 0 135 29 169 16 18 33 40 38 48 5 10 35 19 83 26 138 19 357 103 553 211
581 320 907 828 907 1416 0 185 -27 297 -131 543 -92 216 -354 723 -492 952
-31 51 -35 68 -41 155 -20 281 -84 592 -163 793 -141 359 -442 688 -821 898
-202 111 -386 178 -687 252 -317 77 -616 103 -930 83z m503 -204 c224 -24 592
-118 806 -205 237 -97 417 -216 597 -394 229 -227 327 -392 408 -685 25 -92
71 -322 71 -358 0 -5 -24 12 -52 40 -257 242 -595 429 -986 548 -367 111 -730
165 -1107 165 -610 0 -1049 -135 -1649 -507 -65 -40 -120 -72 -123 -70 -5 6
62 196 122 342 177 433 348 681 598 867 201 149 411 218 792 262 73 8 435 5
523 -5z m-94 -1089 c639 -34 1203 -215 1614 -516 178 -131 308 -267 423 -441
75 -113 193 -313 187 -318 -2 -2 -37 23 -78 56 -478 385 -1333 716 -2035 789
-169 18 -492 16 -649 -4 -345 -44 -681 -145 -1075 -323 -249 -112 -464 -230
-789 -431 -84 -52 -155 -92 -158 -89 -10 10 206 268 320 383 441 440 1123 797
1666 873 203 29 338 34 574 21z m175 -635 c325 -40 663 -134 1041 -288 173
-71 179 -74 186 -104 29 -126 61 -240 103 -368 85 -258 107 -411 98 -695 -4
-102 -18 -297 -32 -435 -45 -443 -93 -698 -171 -919 -42 -119 -147 -333 -210
-427 -136 -205 -432 -384 -776 -468 -176 -43 -292 -55 -486 -48 -284 9 -544
72 -822 198 -314 141 -503 292 -653 518 -189 283 -255 535 -277 1061 -23 536
36 1113 140 1362 11 26 33 97 49 158 33 129 14 113 242 210 329 140 616 219
929 255 153 17 462 13 639 -10z m1838 -731 c139 -103 375 -334 460 -451 66
-88 141 -252 170 -369 23 -92 23 -309 1 -419 -107 -525 -464 -910 -1056 -1142
-63 -24 -115 -43 -117 -41 -2 2 17 46 42 98 44 94 102 257 127 355 l13 50 73
12 c82 14 144 46 200 105 87 88 123 184 145 376 8 75 21 158 29 183 28 91 40
231 27 309 -27 163 -139 288 -274 306 -27 4 -50 12 -52 18 -1 6 -8 78 -14 160
-13 173 -38 305 -85 449 -44 135 -66 212 -66 231 0 21 220 -113 377 -230z
m-3867 233 c0 -2 -11 -37 -25 -78 -55 -159 -99 -385 -120 -609 -3 -36 -8 -84
-11 -107 l-5 -43 -48 0 c-156 0 -280 -132 -316 -336 -19 -109 -19 -212 0 -357
26 -200 92 -359 194 -469 62 -68 115 -98 184 -107 l49 -6 38 -116 c21 -64 54
-151 74 -194 20 -43 34 -80 31 -83 -8 -9 -183 61 -261 103 -239 130 -451 341
-589 586 -210 370 -304 924 -207 1209 15 43 25 54 92 97 196 128 480 290 720
413 58 29 123 63 145 76 39 21 55 27 55 21z m-170 -1289 c0 -240 9 -433 26
-560 4 -31 3 -48 -4 -48 -23 0 -74 66 -111 143 -107 224 -120 553 -27 670 19
24 79 55 109 57 4 0 7 -118 7 -262z m3900 206 c17 -15 38 -40 46 -56 23 -44
20 -165 -5 -270 -12 -49 -28 -142 -36 -208 -23 -179 -55 -260 -119 -299 -45
-28 -68 -28 -61 2 22 100 85 656 85 762 0 73 8 95 35 95 13 0 37 -12 55 -26z
m-2988 -2083 c259 -136 474 -211 759 -263 179 -32 502 -33 670 0 243 47 442
117 623 218 54 30 101 52 105 49 3 -4 6 -122 6 -262 l0 -255 24 -19 c33 -27
93 -25 126 4 18 15 28 37 34 72 l8 50 24 -50 c20 -42 24 -65 24 -141 0 -86 -2
-95 -38 -164 -157 -300 -497 -513 -966 -604 -485 -95 -924 -44 -1317 154 -236
118 -411 270 -490 426 -35 68 -39 85 -39 148 0 62 5 81 38 146 20 41 48 89 62
105 l24 30 1 -82 c0 -78 1 -82 31 -107 52 -44 115 -32 145 26 14 27 16 67 16
257 -1 202 4 321 13 321 2 0 54 -27 117 -59z"/>
<path d="M4061 6270 c-196 -28 -351 -120 -353 -210 -1 -40 30 -82 70 -94 32
-9 33 -8 143 53 92 51 162 64 323 59 127 -4 147 -7 206 -32 110 -48 164 -45
189 11 38 83 -37 161 -190 198 -78 19 -300 27 -388 15z"/>
<path d="M5778 6270 c-175 -21 -308 -101 -308 -186 0 -49 16 -73 57 -90 34
-15 38 -14 117 25 104 52 145 60 286 61 138 0 222 -20 309 -74 70 -43 112 -46
146 -12 36 36 41 71 18 120 -60 122 -331 190 -625 156z"/>
<path d="M5778 5895 c-117 -24 -198 -70 -219 -123 -12 -30 11 -85 45 -107 30
-20 86 -14 106 10 21 26 27 17 23 -37 -5 -62 18 -106 69 -138 66 -40 156 -16
198 52 22 36 26 98 10 129 -8 13 -7 19 0 19 19 0 64 -27 85 -50 21 -24 73 -50
99 -50 8 0 28 12 45 26 41 34 44 97 6 142 -87 103 -301 162 -467 127z"/>
<path d="M4083 5880 c-178 -47 -286 -178 -208 -255 36 -37 85 -34 132 9 21 18
53 41 71 50 l32 17 -6 -53 c-10 -95 53 -168 145 -168 90 0 159 78 147 166 l-6
43 33 -19 c46 -29 74 -25 113 14 134 134 -176 269 -453 196z"/>
<path d="M4697 5412 c-67 -45 -115 -156 -102 -240 18 -124 110 -201 237 -202
31 0 60 -5 64 -11 3 -6 30 -22 58 -35 66 -31 145 -32 223 -2 43 16 82 22 150
22 85 1 94 3 134 31 66 46 103 113 107 194 8 128 -38 213 -115 215 -28 0 -48
-6 -63 -19 -38 -34 -42 -60 -19 -126 20 -57 20 -61 4 -86 -15 -23 -21 -25 -59
-18 -73 14 -119 9 -173 -19 -66 -33 -103 -33 -141 -1 -49 41 -99 57 -153 50
-41 -6 -49 -4 -58 14 -16 29 -14 37 19 74 16 19 33 45 38 58 12 33 -3 85 -30
104 -30 20 -87 19 -121 -3z"/>
<path d="M5565 4598 c-30 -11 -345 -29 -510 -30 -99 -1 -436 18 -502 28 -38 5
-46 3 -73 -24 -33 -34 -38 -67 -15 -111 25 -50 114 -71 299 -71 66 0 158 -6
204 -14 68 -11 97 -11 170 0 48 7 144 13 214 14 133 0 256 18 307 45 39 20 64
67 56 106 -13 58 -76 82 -150 57z"/>
<path d="M4826 4197 c-35 -35 -36 -94 -3 -125 94 -88 497 -75 547 17 18 35 12
80 -16 108 -25 25 -29 25 -92 17 -84 -10 -267 -10 -349 1 -58 7 -63 6 -87 -18z"/>
</g>
</svg>
